<svg xmlns="http://www.w3.org/2000/svg" viewBox="0 0 814 1000" width="814" height="1000">
  <path d="M788.1 340.9c-5.8 4.5-108.2 62.2-108.2 190.5 0 148.4 130.3 200.9 134.2 202.2-.6 3.2-20.7 71.9-68.7 141.9-42.8 61.6-87.5 123.1-155.5 123.1s-85.5-39.5-164-39.5c-76.5 0-103.7 40.8-165.9 40.8s-105.6-57-155.5-127.2c-54.7-77.4-96.7-194.1-96.7-315.4 0-101.2 63.2-154.2 125.1-154.2 67.3 0 110.5 39.5 148.5 39.5 36.3 0 84.1-40.8 155.5-40.8 26.4 0 108.2 2.6 159.1 61.8zm-108.2-90.1c0-33.6-13.2-64.6-37.3-87.8-22.8-21.5-54.6-33.6-87.8-32.3-1.3 27-7.9 53.3-21.5 76.1-14.8 25.2-37.3 47.4-62.4 59.1 2.6-0.7 5.2-1.3 7.9-1.3 33.6 0 64.6-13.9 87.8-37.3 21.5-22.2 32.3-52.7 32.3-85.5z" fill="#000"/>
</svg> 